solid OpenSCAD_Model
  facet normal -0.405442 -0.702247 0.585206
    outer loop
      vertex 0 0 60
      vertex -43.3013 -25 0
      vertex 0 -50 0
    endloop
  endfacet
  facet normal -0.810885 0 0.585206
    outer loop
      vertex -43.3013 25 0
      vertex -43.3013 -25 0
      vertex 0 0 60
    endloop
  endfacet
  facet normal -0.405442 0.702247 0.585206
    outer loop
      vertex 0 50 0
      vertex -43.3013 25 0
      vertex 0 0 60
    endloop
  endfacet
  facet normal 0 0 -1
    outer loop
      vertex 0 0 0
      vertex 43.3013 -25 0
      vertex 0 -50 0
    endloop
  endfacet
  facet normal 0 0 -1
    outer loop
      vertex 43.3013 -25 0
      vertex 0 0 0
      vertex 43.3013 25 0
    endloop
  endfacet
  facet normal 0 0 -1
    outer loop
      vertex -43.3013 -25 0
      vertex 0 0 0
      vertex 0 -50 0
    endloop
  endfacet
  facet normal 0 0 -1
    outer loop
      vertex -43.3013 25 0
      vertex 0 0 0
      vertex -43.3013 -25 0
    endloop
  endfacet
  facet normal 0 0 -1
    outer loop
      vertex 0 0 0
      vertex -43.3013 25 0
      vertex 0 50 0
    endloop
  endfacet
  facet normal 0.405442 -0.702247 0.585206
    outer loop
      vertex 0 0 60
      vertex 0 -50 0
      vertex 43.3013 -25 0
    endloop
  endfacet
  facet normal 0.810885 0 0.585206
    outer loop
      vertex 43.3013 25 0
      vertex 0 0 60
      vertex 43.3013 -25 0
    endloop
  endfacet
  facet normal -0.5 0.866026 0
    outer loop
      vertex 0 0 60
      vertex 43.3013 25 0
      vertex 0 0 0
    endloop
  endfacet
  facet normal 1 0 0
    outer loop
      vertex 0 50 0
      vertex 0 0 60
      vertex 0 0 0
    endloop
  endfacet
  facet normal 0.405442 0.702247 0.585206
    outer loop
      vertex 10 70 0
      vertex 10 20 60
      vertex 53.3013 45 0
    endloop
  endfacet
  facet normal -0 0 -1
    outer loop
      vertex 53.3013 45 0
      vertex 10 20 0
      vertex 10 70 0
    endloop
  endfacet
  facet normal 0.5 -0.866026 0
    outer loop
      vertex 10 20 60
      vertex 10 20 0
      vertex 53.3013 45 0
    endloop
  endfacet
  facet normal -1 0 0
    outer loop
      vertex 10 70 0
      vertex 10 20 0
      vertex 10 20 60
    endloop
  endfacet
endsolid OpenSCAD_Model
