solid OpenSCAD_Model
  facet normal 0 0 -1
    outer loop
      vertex 50 -50 0
      vertex 0 0 0
      vertex 50 0 0
    endloop
  endfacet
  facet normal 0 0 -1
    outer loop
      vertex -50 -50 0
      vertex 0 0 0
      vertex 50 -50 0
    endloop
  endfacet
  facet normal -0 0 -1
    outer loop
      vertex 0 0 0
      vertex -50 -50 0
      vertex -50 50 0
    endloop
  endfacet
  facet normal 0.707107 0.707107 0
    outer loop
      vertex 0 0 50
      vertex 0 0 0
      vertex -50 50 0
    endloop
  endfacet
  facet normal 0 1 0
    outer loop
      vertex 0 0 50
      vertex 50 0 0
      vertex 0 0 0
    endloop
  endfacet
  facet normal -0.707107 0 0.707107
    outer loop
      vertex -50 50 0
      vertex -50 -50 0
      vertex 0 0 50
    endloop
  endfacet
  facet normal 0 -0.707107 0.707107
    outer loop
      vertex 0 0 50
      vertex -50 -50 0
      vertex 50 -50 0
    endloop
  endfacet
  facet normal 0.707107 0 0.707107
    outer loop
      vertex 50 0 0
      vertex 0 0 50
      vertex 50 -50 0
    endloop
  endfacet
  facet normal 0 0.707107 0.707107
    outer loop
      vertex 0 60 0
      vertex -50 60 0
      vertex 0 10 50
    endloop
  endfacet
  facet normal 0 0 -1
    outer loop
      vertex 0 10 0
      vertex -50 60 0
      vertex 0 60 0
    endloop
  endfacet
  facet normal -0.707107 -0.707107 -0
    outer loop
      vertex 0 10 50
      vertex -50 60 0
      vertex 0 10 0
    endloop
  endfacet
  facet normal 1 0 0
    outer loop
      vertex 0 10 50
      vertex 0 10 0
      vertex 0 60 0
    endloop
  endfacet
  facet normal -0 0.707107 0.707107
    outer loop
      vertex 10 60 0
      vertex 10 10 50
      vertex 60 60 0
    endloop
  endfacet
  facet normal 0 0 -1
    outer loop
      vertex 10 10 0
      vertex 60 60 0
      vertex 60 10 0
    endloop
  endfacet
  facet normal -0 0 -1
    outer loop
      vertex 60 60 0
      vertex 10 10 0
      vertex 10 60 0
    endloop
  endfacet
  facet normal 0.707107 0 0.707107
    outer loop
      vertex 60 60 0
      vertex 10 10 50
      vertex 60 10 0
    endloop
  endfacet
  facet normal -1 0 0
    outer loop
      vertex 10 60 0
      vertex 10 10 0
      vertex 10 10 50
    endloop
  endfacet
  facet normal 0 -1 0
    outer loop
      vertex 10 10 50
      vertex 10 10 0
      vertex 60 10 0
    endloop
  endfacet
endsolid OpenSCAD_Model
